<svg width="461" height="329" viewBox="0 0 461 329" fill="none" xmlns="http://www.w3.org/2000/svg">
<path d="M98.7241 96.4513H87.281V70.2082H98.7241C98.8781 70.2082 99.0321 70.1306 99.0321 69.9755V64.4464C99.0321 64.2913 98.8781 64.1362 98.7241 64.1362H81.5594C81.4054 64.1362 81.2514 64.2913 81.2514 64.4464V112.489C81.2514 112.644 81.4054 112.799 81.5594 112.799H98.7241C98.8781 112.799 99.0321 112.644 99.0321 112.489V107.038C99.0321 106.805 98.8781 106.727 98.7241 106.727H87.281V102.601H98.7241C98.8781 102.601 99.0321 102.446 99.0321 102.291V96.7615C99.0321 96.6064 98.8781 96.4513 98.7241 96.4513Z" fill="#F9F9F9"/>
<path d="M132.722 101.118L126.546 104.8V64.4464C126.546 64.2913 126.703 64.1362 126.861 64.1362H132.406C132.564 64.1362 132.722 64.2913 132.722 64.4464V101.118Z" fill="#F9F9F9"/>
<path d="M139.273 97.2119V70.3653L145.351 81.1136V93.588L139.273 97.2119Z" fill="#F9F9F9"/>
<path fill-rule="evenodd" clip-rule="evenodd" d="M52.811 64.1362C65.6744 64.7599 75.8236 75.5039 75.8236 88.5066C75.8236 101.509 65.6711 112.176 52.811 112.799H47.3087C47.1543 112.799 47 112.644 47 112.489V64.4497C47 64.2947 47.1543 64.1396 47.3087 64.1396H52.811V64.1362ZM69.7039 88.5066C69.7039 98.0032 62.42 105.868 53.0425 106.647V70.2887C62.42 71.0674 69.7039 79.0099 69.7039 88.5066Z" fill="#F9F9F9"/>
<path d="M120.743 107.038C120.743 106.805 120.59 106.727 120.436 106.727H110.857V64.4464C110.857 64.2913 110.781 64.1362 110.55 64.1362H105.142C104.988 64.1362 104.834 64.2913 104.834 64.4464V112.489C104.834 112.644 104.988 112.799 105.142 112.799H113.556L113.444 112.612L120.743 108.26V107.038Z" fill="#F9F9F9"/>
<g filter="url(#filter0_d_292_306)">
<path fill-rule="evenodd" clip-rule="evenodd" d="M212.642 95.8315V80.0043L218.7 78.8069V95.8315C218.7 95.9866 218.623 96.1417 218.468 96.1417H212.951C212.796 96.1417 212.642 95.9866 212.642 95.8315ZM255.833 71.4683L249.507 72.7184C250.403 73.8228 250.941 75.2246 250.941 76.7537V95.8315C250.941 95.9866 251.019 96.1417 251.174 96.1417H256.691C256.845 96.1417 257 95.9866 257 95.8315V76.7537C257 74.8701 256.581 73.0786 255.833 71.4683ZM231.732 76.2314L238.143 74.9643C237.978 75.5321 237.889 76.1324 237.889 76.7537V95.8315C237.889 95.9866 237.734 96.1417 237.58 96.1417H232.062C231.908 96.1417 231.753 95.9866 231.753 95.8315V76.7537C231.753 76.5778 231.746 76.4036 231.732 76.2314ZM131.973 104.169L125.797 107.851V112.489C125.797 112.644 125.954 112.799 126.112 112.799H131.658C131.815 112.799 131.973 112.644 131.973 112.489V104.169ZM138.524 112.489V100.263L145.851 95.8942C149.071 95.5078 151.93 93.9252 153.967 91.6006L161.944 90.024C160.952 92.5756 159.407 94.9007 157.385 96.8391C160.969 101.276 162.919 106.805 162.919 112.489H162.916C162.916 112.644 162.838 112.799 162.683 112.799H157.149C156.994 112.799 156.838 112.644 156.838 112.489C156.605 108.13 155.124 103.767 152.316 100.342C149.9 101.431 147.329 102.055 144.602 102.132V112.489C144.602 112.644 144.524 112.799 144.291 112.799H138.834C138.679 112.799 138.524 112.644 138.524 112.489ZM117.498 112.799L119.995 111.311V112.489C119.995 112.644 119.841 112.799 119.687 112.799H117.498ZM168.096 112.489V88.8081L174.273 87.5874V112.489C174.273 112.644 174.115 112.799 173.957 112.799H168.412C168.254 112.799 168.096 112.644 168.096 112.489ZM180.83 86.2914V100.184H180.824C180.824 107.116 186.421 112.799 193.419 112.799C200.416 112.799 206.091 107.116 206.091 100.184V81.299L199.952 82.5123V100.184C199.952 103.765 196.996 106.725 193.422 106.725C189.847 106.725 186.892 103.765 186.892 100.184V85.0933L180.83 86.2914Z" fill="#F9F9F9"/>
</g>
<g filter="url(#filter1_d_292_306)">
<path d="M256.176 68.6287C253.91 65.2511 250.063 63.0146 245.726 63.0134C241.996 63.0144 238.502 64.6496 236.172 67.4507C233.763 64.6488 230.268 63.0134 226.537 63.0134C219.624 63.0134 213.952 68.6983 213.952 75.6308V76.9736L220.011 75.7762V75.6308C220.011 72.0499 222.887 69.167 226.537 69.167C229.342 69.167 231.69 70.8694 232.627 73.2828L240.535 71.7199C241.733 70.1667 243.622 69.167 245.726 69.167C246.916 69.167 248.037 69.487 249.004 70.0461L256.176 68.6287Z" fill="#F9F9F9"/>
<path fill-rule="evenodd" clip-rule="evenodd" d="M156.84 88.2609L163.916 86.8624C164.327 85.2985 164.54 83.6707 164.54 82.0114C164.54 71.5802 156.124 63.0134 145.602 63.0134H140.145C139.99 63.0134 139.834 63.1685 139.834 63.3236V65.44L145.912 76.1883V69.1629C152.847 69.318 158.459 75.0022 158.459 82.0114C158.459 84.2811 157.871 86.4118 156.84 88.2609ZM169.407 85.7773L175.583 84.5566V63.3236C175.583 63.1685 175.425 63.0134 175.268 63.0134H169.722C169.564 63.0134 169.407 63.1685 169.407 63.3236V85.7773ZM182.141 83.2606L188.203 82.0626V63.3236C188.203 63.1685 188.125 63.0134 187.97 63.0134H182.45C182.296 63.0134 182.141 63.1685 182.141 63.3236V83.2606ZM201.262 79.4816L207.401 78.2682V63.3236C207.401 63.1685 207.247 63.0134 207.092 63.0134H201.572C201.417 63.0134 201.262 63.1685 201.262 63.3236V79.4816Z" fill="#F9F9F9"/>
</g>
<g filter="url(#filter2_dddddd_292_306)">
<path d="M220.69 112.363C220.219 112.563 219.744 112.716 219.259 112.824C218.774 112.932 218.285 112.986 217.787 112.986C217.092 112.986 216.427 112.875 215.792 112.648C215.158 112.421 214.582 112.079 214.056 111.619C212.987 110.535 212.455 109.259 212.455 107.786C212.455 106.828 212.665 106.009 213.086 105.322C213.506 104.635 213.917 104.11 214.32 103.744C214.724 103.379 215.107 103.121 215.474 102.972C215.84 102.823 216.138 102.722 216.369 102.668C216.6 102.613 216.834 102.573 217.075 102.546C217.315 102.519 217.546 102.505 217.773 102.505C218.109 102.505 218.462 102.536 218.832 102.593C219.201 102.651 219.574 102.735 219.944 102.844L220.69 103.182V104.509C219.849 103.913 218.927 103.616 217.923 103.616C217.244 103.616 216.61 103.754 216.023 104.029C215.436 104.303 214.928 104.726 214.504 105.295C214.259 105.657 214.073 106.05 213.941 106.473C213.808 106.896 213.744 107.329 213.744 107.773C213.744 108.541 213.937 109.259 214.32 109.933C214.704 110.606 215.233 111.111 215.908 111.449C216.583 111.788 217.268 111.957 217.963 111.957C218.713 111.957 219.388 111.771 219.985 111.402L220.69 110.955V112.363Z" fill="#EB3838"/>
</g>
<g filter="url(#filter3_dddddd_292_306)">
<path d="M235.289 107.682C235.289 109.152 234.775 110.403 233.749 111.436C232.722 112.47 231.478 112.986 230.021 112.986C228.564 112.986 227.277 112.487 226.214 111.487C225.15 110.487 224.62 109.262 224.62 107.813C224.62 106.363 225.134 105.092 226.161 104.059C227.187 103.025 228.431 102.505 229.888 102.505C231.345 102.505 232.632 103.005 233.695 104.005C234.759 105.005 235.289 106.229 235.289 107.682ZM234.062 107.655C234.062 106.518 233.652 105.555 232.835 104.763C232.018 103.975 231.035 103.579 229.888 103.579C228.741 103.579 227.804 103.991 227.021 104.817C226.237 105.642 225.847 106.632 225.847 107.786C225.847 108.94 226.254 109.886 227.067 110.668C227.881 111.453 228.864 111.846 230.021 111.846C231.178 111.846 232.105 111.433 232.888 110.608C233.672 109.782 234.062 108.796 234.062 107.652V107.655Z" fill="#EB3838"/>
</g>
<g filter="url(#filter4_dddddd_292_306)">
<path d="M246.144 112.796H244.541L240.834 107.636V112.799H239.594V102.692L243.247 102.733C243.951 102.733 244.524 103.006 244.974 103.553C245.424 104.099 245.648 104.731 245.648 105.451C245.648 105.833 245.584 106.189 245.454 106.516C245.324 106.844 245.114 107.145 244.821 107.418C244.491 107.691 244.134 107.886 243.741 108.005H242.434L246.141 112.796H246.144ZM243.434 103.908C243.317 103.863 243.197 103.822 243.067 103.792C242.937 103.761 242.821 103.744 242.714 103.744H240.834V107.131H243.034C243.461 107.131 243.791 106.977 244.027 106.673C244.264 106.37 244.381 105.997 244.381 105.56C244.381 105.195 244.301 104.864 244.141 104.563C243.981 104.263 243.744 104.044 243.434 103.908Z" fill="#EB3838"/>
</g>
<g filter="url(#filter5_dddddd_292_306)">
<path d="M256.439 105.198V105.554C256.439 106.264 256.218 106.868 255.78 107.373C255.341 107.879 254.768 108.166 254.06 108.237H252.023V112.799H250.824V102.692L253.987 102.733C254.682 102.815 255.262 103.075 255.734 103.515C256.205 103.956 256.439 104.515 256.439 105.198ZM254.251 103.935C254.05 103.863 253.832 103.809 253.605 103.771H252.023V107.227H253.987C254.366 107.111 254.663 106.885 254.883 106.554C255.104 106.223 255.213 105.857 255.213 105.458C255.213 105.123 255.134 104.819 254.976 104.546C254.817 104.273 254.577 104.072 254.251 103.935Z" fill="#EB3838"/>
</g>
<defs>
<filter id="filter0_d_292_306" x="10.4978" y="3.46826" width="251.502" height="153.331" filterUnits="userSpaceOnUse" color-interpolation-filters="sRGB">
<feFlood flood-opacity="0" result="BackgroundImageFix"/>
<feColorMatrix in="SourceAlpha" type="matrix" values="0 0 0 0 0 0 0 0 0 0 0 0 0 0 0 0 0 0 127 0" result="hardAlpha"/>
<feOffset dx="-51" dy="-12"/>
<feGaussianBlur stdDeviation="28"/>
<feComposite in2="hardAlpha" operator="out"/>
<feColorMatrix type="matrix" values="0 0 0 0 0 0 0 0 0 0 0 0 0 0 0 0 0 0 0.5 0"/>
<feBlend mode="normal" in2="BackgroundImageFix" result="effect1_dropShadow_292_306"/>
<feBlend mode="normal" in="SourceGraphic" in2="effect1_dropShadow_292_306" result="shape"/>
</filter>
<filter id="filter1_d_292_306" x="63.8345" y="35.0134" width="228.341" height="137.248" filterUnits="userSpaceOnUse" color-interpolation-filters="sRGB">
<feFlood flood-opacity="0" result="BackgroundImageFix"/>
<feColorMatrix in="SourceAlpha" type="matrix" values="0 0 0 0 0 0 0 0 0 0 0 0 0 0 0 0 0 0 127 0" result="hardAlpha"/>
<feOffset dx="-20" dy="28"/>
<feGaussianBlur stdDeviation="28"/>
<feComposite in2="hardAlpha" operator="out"/>
<feColorMatrix type="matrix" values="0 0 0 0 0 0 0 0 0 0 0 0 0 0 0 0 0 0 0.5 0"/>
<feBlend mode="normal" in2="BackgroundImageFix" result="effect1_dropShadow_292_306"/>
<feBlend mode="normal" in="SourceGraphic" in2="effect1_dropShadow_292_306" result="shape"/>
</filter>
<filter id="filter2_dddddd_292_306" x="0.774963" y="-109.175" width="431.595" height="433.841" filterUnits="userSpaceOnUse" color-interpolation-filters="sRGB">
<feFlood flood-opacity="0" result="BackgroundImageFix"/>
<feColorMatrix in="SourceAlpha" type="matrix" values="0 0 0 0 0 0 0 0 0 0 0 0 0 0 0 0 0 0 127 0" result="hardAlpha"/>
<feOffset/>
<feGaussianBlur stdDeviation="2.52"/>
<feColorMatrix type="matrix" values="0 0 0 0 0.92549 0 0 0 0 0.219608 0 0 0 0 0.219608 0 0 0 1 0"/>
<feBlend mode="normal" in2="BackgroundImageFix" result="effect1_dropShadow_292_306"/>
<feColorMatrix in="SourceAlpha" type="matrix" values="0 0 0 0 0 0 0 0 0 0 0 0 0 0 0 0 0 0 127 0" result="hardAlpha"/>
<feOffset/>
<feGaussianBlur stdDeviation="5.04"/>
<feColorMatrix type="matrix" values="0 0 0 0 0.92549 0 0 0 0 0.219608 0 0 0 0 0.219608 0 0 0 1 0"/>
<feBlend mode="normal" in2="effect1_dropShadow_292_306" result="effect2_dropShadow_292_306"/>
<feColorMatrix in="SourceAlpha" type="matrix" values="0 0 0 0 0 0 0 0 0 0 0 0 0 0 0 0 0 0 127 0" result="hardAlpha"/>
<feOffset/>
<feGaussianBlur stdDeviation="17.64"/>
<feColorMatrix type="matrix" values="0 0 0 0 0.92549 0 0 0 0 0.219608 0 0 0 0 0.219608 0 0 0 1 0"/>
<feBlend mode="normal" in2="effect2_dropShadow_292_306" result="effect3_dropShadow_292_306"/>
<feColorMatrix in="SourceAlpha" type="matrix" values="0 0 0 0 0 0 0 0 0 0 0 0 0 0 0 0 0 0 127 0" result="hardAlpha"/>
<feOffset/>
<feGaussianBlur stdDeviation="35.28"/>
<feColorMatrix type="matrix" values="0 0 0 0 0.92549 0 0 0 0 0.219608 0 0 0 0 0.219608 0 0 0 1 0"/>
<feBlend mode="normal" in2="effect3_dropShadow_292_306" result="effect4_dropShadow_292_306"/>
<feColorMatrix in="SourceAlpha" type="matrix" values="0 0 0 0 0 0 0 0 0 0 0 0 0 0 0 0 0 0 127 0" result="hardAlpha"/>
<feOffset/>
<feGaussianBlur stdDeviation="60.48"/>
<feColorMatrix type="matrix" values="0 0 0 0 0.92549 0 0 0 0 0.219608 0 0 0 0 0.219608 0 0 0 1 0"/>
<feBlend mode="normal" in2="effect4_dropShadow_292_306" result="effect5_dropShadow_292_306"/>
<feColorMatrix in="SourceAlpha" type="matrix" values="0 0 0 0 0 0 0 0 0 0 0 0 0 0 0 0 0 0 127 0" result="hardAlpha"/>
<feOffset/>
<feGaussianBlur stdDeviation="105.84"/>
<feColorMatrix type="matrix" values="0 0 0 0 0.92549 0 0 0 0 0.219608 0 0 0 0 0.219608 0 0 0 1 0"/>
<feBlend mode="normal" in2="effect5_dropShadow_292_306" result="effect6_dropShadow_292_306"/>
<feBlend mode="normal" in="SourceGraphic" in2="effect6_dropShadow_292_306" result="shape"/>
</filter>
<filter id="filter3_dddddd_292_306" x="9.16035" y="-112.955" width="441.588" height="441.401" filterUnits="userSpaceOnUse" color-interpolation-filters="sRGB">
<feFlood flood-opacity="0" result="BackgroundImageFix"/>
<feColorMatrix in="SourceAlpha" type="matrix" values="0 0 0 0 0 0 0 0 0 0 0 0 0 0 0 0 0 0 127 0" result="hardAlpha"/>
<feOffset/>
<feGaussianBlur stdDeviation="2.565"/>
<feColorMatrix type="matrix" values="0 0 0 0 0.92549 0 0 0 0 0.219608 0 0 0 0 0.219608 0 0 0 1 0"/>
<feBlend mode="normal" in2="BackgroundImageFix" result="effect1_dropShadow_292_306"/>
<feColorMatrix in="SourceAlpha" type="matrix" values="0 0 0 0 0 0 0 0 0 0 0 0 0 0 0 0 0 0 127 0" result="hardAlpha"/>
<feOffset/>
<feGaussianBlur stdDeviation="5.13"/>
<feColorMatrix type="matrix" values="0 0 0 0 0.92549 0 0 0 0 0.219608 0 0 0 0 0.219608 0 0 0 1 0"/>
<feBlend mode="normal" in2="effect1_dropShadow_292_306" result="effect2_dropShadow_292_306"/>
<feColorMatrix in="SourceAlpha" type="matrix" values="0 0 0 0 0 0 0 0 0 0 0 0 0 0 0 0 0 0 127 0" result="hardAlpha"/>
<feOffset/>
<feGaussianBlur stdDeviation="17.955"/>
<feColorMatrix type="matrix" values="0 0 0 0 0.92549 0 0 0 0 0.219608 0 0 0 0 0.219608 0 0 0 1 0"/>
<feBlend mode="normal" in2="effect2_dropShadow_292_306" result="effect3_dropShadow_292_306"/>
<feColorMatrix in="SourceAlpha" type="matrix" values="0 0 0 0 0 0 0 0 0 0 0 0 0 0 0 0 0 0 127 0" result="hardAlpha"/>
<feOffset/>
<feGaussianBlur stdDeviation="35.91"/>
<feColorMatrix type="matrix" values="0 0 0 0 0.92549 0 0 0 0 0.219608 0 0 0 0 0.219608 0 0 0 1 0"/>
<feBlend mode="normal" in2="effect3_dropShadow_292_306" result="effect4_dropShadow_292_306"/>
<feColorMatrix in="SourceAlpha" type="matrix" values="0 0 0 0 0 0 0 0 0 0 0 0 0 0 0 0 0 0 127 0" result="hardAlpha"/>
<feOffset/>
<feGaussianBlur stdDeviation="61.56"/>
<feColorMatrix type="matrix" values="0 0 0 0 0.92549 0 0 0 0 0.219608 0 0 0 0 0.219608 0 0 0 1 0"/>
<feBlend mode="normal" in2="effect4_dropShadow_292_306" result="effect5_dropShadow_292_306"/>
<feColorMatrix in="SourceAlpha" type="matrix" values="0 0 0 0 0 0 0 0 0 0 0 0 0 0 0 0 0 0 127 0" result="hardAlpha"/>
<feOffset/>
<feGaussianBlur stdDeviation="107.73"/>
<feColorMatrix type="matrix" values="0 0 0 0 0.92549 0 0 0 0 0.219608 0 0 0 0 0.219608 0 0 0 1 0"/>
<feBlend mode="normal" in2="effect5_dropShadow_292_306" result="effect6_dropShadow_292_306"/>
<feBlend mode="normal" in="SourceGraphic" in2="effect6_dropShadow_292_306" result="shape"/>
</filter>
<filter id="filter4_dddddd_292_306" x="35.4736" y="-101.428" width="414.791" height="418.347" filterUnits="userSpaceOnUse" color-interpolation-filters="sRGB">
<feFlood flood-opacity="0" result="BackgroundImageFix"/>
<feColorMatrix in="SourceAlpha" type="matrix" values="0 0 0 0 0 0 0 0 0 0 0 0 0 0 0 0 0 0 127 0" result="hardAlpha"/>
<feOffset/>
<feGaussianBlur stdDeviation="2.43"/>
<feColorMatrix type="matrix" values="0 0 0 0 0.92549 0 0 0 0 0.219608 0 0 0 0 0.219608 0 0 0 1 0"/>
<feBlend mode="normal" in2="BackgroundImageFix" result="effect1_dropShadow_292_306"/>
<feColorMatrix in="SourceAlpha" type="matrix" values="0 0 0 0 0 0 0 0 0 0 0 0 0 0 0 0 0 0 127 0" result="hardAlpha"/>
<feOffset/>
<feGaussianBlur stdDeviation="4.86"/>
<feColorMatrix type="matrix" values="0 0 0 0 0.92549 0 0 0 0 0.219608 0 0 0 0 0.219608 0 0 0 1 0"/>
<feBlend mode="normal" in2="effect1_dropShadow_292_306" result="effect2_dropShadow_292_306"/>
<feColorMatrix in="SourceAlpha" type="matrix" values="0 0 0 0 0 0 0 0 0 0 0 0 0 0 0 0 0 0 127 0" result="hardAlpha"/>
<feOffset/>
<feGaussianBlur stdDeviation="17.01"/>
<feColorMatrix type="matrix" values="0 0 0 0 0.92549 0 0 0 0 0.219608 0 0 0 0 0.219608 0 0 0 1 0"/>
<feBlend mode="normal" in2="effect2_dropShadow_292_306" result="effect3_dropShadow_292_306"/>
<feColorMatrix in="SourceAlpha" type="matrix" values="0 0 0 0 0 0 0 0 0 0 0 0 0 0 0 0 0 0 127 0" result="hardAlpha"/>
<feOffset/>
<feGaussianBlur stdDeviation="34.02"/>
<feColorMatrix type="matrix" values="0 0 0 0 0.92549 0 0 0 0 0.219608 0 0 0 0 0.219608 0 0 0 1 0"/>
<feBlend mode="normal" in2="effect3_dropShadow_292_306" result="effect4_dropShadow_292_306"/>
<feColorMatrix in="SourceAlpha" type="matrix" values="0 0 0 0 0 0 0 0 0 0 0 0 0 0 0 0 0 0 127 0" result="hardAlpha"/>
<feOffset/>
<feGaussianBlur stdDeviation="58.32"/>
<feColorMatrix type="matrix" values="0 0 0 0 0.92549 0 0 0 0 0.219608 0 0 0 0 0.219608 0 0 0 1 0"/>
<feBlend mode="normal" in2="effect4_dropShadow_292_306" result="effect5_dropShadow_292_306"/>
<feColorMatrix in="SourceAlpha" type="matrix" values="0 0 0 0 0 0 0 0 0 0 0 0 0 0 0 0 0 0 127 0" result="hardAlpha"/>
<feOffset/>
<feGaussianBlur stdDeviation="102.06"/>
<feColorMatrix type="matrix" values="0 0 0 0 0.92549 0 0 0 0 0.219608 0 0 0 0 0.219608 0 0 0 1 0"/>
<feBlend mode="normal" in2="effect5_dropShadow_292_306" result="effect6_dropShadow_292_306"/>
<feBlend mode="normal" in="SourceGraphic" in2="effect6_dropShadow_292_306" result="shape"/>
</filter>
<filter id="filter5_dddddd_292_306" x="46.7037" y="-101.428" width="413.855" height="418.347" filterUnits="userSpaceOnUse" color-interpolation-filters="sRGB">
<feFlood flood-opacity="0" result="BackgroundImageFix"/>
<feColorMatrix in="SourceAlpha" type="matrix" values="0 0 0 0 0 0 0 0 0 0 0 0 0 0 0 0 0 0 127 0" result="hardAlpha"/>
<feOffset/>
<feGaussianBlur stdDeviation="2.43"/>
<feColorMatrix type="matrix" values="0 0 0 0 0.92549 0 0 0 0 0.219608 0 0 0 0 0.219608 0 0 0 1 0"/>
<feBlend mode="normal" in2="BackgroundImageFix" result="effect1_dropShadow_292_306"/>
<feColorMatrix in="SourceAlpha" type="matrix" values="0 0 0 0 0 0 0 0 0 0 0 0 0 0 0 0 0 0 127 0" result="hardAlpha"/>
<feOffset/>
<feGaussianBlur stdDeviation="4.86"/>
<feColorMatrix type="matrix" values="0 0 0 0 0.92549 0 0 0 0 0.219608 0 0 0 0 0.219608 0 0 0 1 0"/>
<feBlend mode="normal" in2="effect1_dropShadow_292_306" result="effect2_dropShadow_292_306"/>
<feColorMatrix in="SourceAlpha" type="matrix" values="0 0 0 0 0 0 0 0 0 0 0 0 0 0 0 0 0 0 127 0" result="hardAlpha"/>
<feOffset/>
<feGaussianBlur stdDeviation="17.01"/>
<feColorMatrix type="matrix" values="0 0 0 0 0.92549 0 0 0 0 0.219608 0 0 0 0 0.219608 0 0 0 1 0"/>
<feBlend mode="normal" in2="effect2_dropShadow_292_306" result="effect3_dropShadow_292_306"/>
<feColorMatrix in="SourceAlpha" type="matrix" values="0 0 0 0 0 0 0 0 0 0 0 0 0 0 0 0 0 0 127 0" result="hardAlpha"/>
<feOffset/>
<feGaussianBlur stdDeviation="34.02"/>
<feColorMatrix type="matrix" values="0 0 0 0 0.92549 0 0 0 0 0.219608 0 0 0 0 0.219608 0 0 0 1 0"/>
<feBlend mode="normal" in2="effect3_dropShadow_292_306" result="effect4_dropShadow_292_306"/>
<feColorMatrix in="SourceAlpha" type="matrix" values="0 0 0 0 0 0 0 0 0 0 0 0 0 0 0 0 0 0 127 0" result="hardAlpha"/>
<feOffset/>
<feGaussianBlur stdDeviation="58.32"/>
<feColorMatrix type="matrix" values="0 0 0 0 0.92549 0 0 0 0 0.219608 0 0 0 0 0.219608 0 0 0 1 0"/>
<feBlend mode="normal" in2="effect4_dropShadow_292_306" result="effect5_dropShadow_292_306"/>
<feColorMatrix in="SourceAlpha" type="matrix" values="0 0 0 0 0 0 0 0 0 0 0 0 0 0 0 0 0 0 127 0" result="hardAlpha"/>
<feOffset/>
<feGaussianBlur stdDeviation="102.06"/>
<feColorMatrix type="matrix" values="0 0 0 0 0.92549 0 0 0 0 0.219608 0 0 0 0 0.219608 0 0 0 1 0"/>
<feBlend mode="normal" in2="effect5_dropShadow_292_306" result="effect6_dropShadow_292_306"/>
<feBlend mode="normal" in="SourceGraphic" in2="effect6_dropShadow_292_306" result="shape"/>
</filter>
</defs>
</svg>
