<svg width="428" height="2287" viewBox="0 0 428 2287" fill="none" xmlns="http://www.w3.org/2000/svg">
<g filter="url(#filter0_d_391_1106)">
<path fill-rule="evenodd" clip-rule="evenodd" d="M427 1982C427.552 1982 428 1981.55 428 1981L428 140C428 112.386 405.614 90 378 90L332.404 90C289.4 90 258.079 32.461 215.1 31.0157C214.785 31.0051 214.469 30.9999 214.153 30.9999C213.837 30.9999 213.521 31.0051 213.207 31.0157C170.227 32.461 138.906 90 95.9025 90L50.0001 90C22.3858 90 7.18941e-05 112.386 6.948e-05 140L-9.14653e-05 1981C-9.15136e-05 1981.55 0.447632 1982 0.999908 1982L427 1982Z" fill="#161616"/>
</g>
<g filter="url(#filter1_d_391_1106)">
<path fill-rule="evenodd" clip-rule="evenodd" d="M50 1734C22.3858 1734 0 1756.39 0 1784V2141.93C0 2169.54 22.3858 2191.93 50 2191.93H105.384C142.951 2191.93 176.279 2238 213.847 2238C251.414 2238 284.742 2191.93 322.31 2191.93H378C405.614 2191.93 428 2169.54 428 2141.93V1784C428 1756.39 405.614 1734 378 1734H50Z" fill="#161616"/>
</g>
<defs>
<filter id="filter0_d_391_1106" x="-40" y="-0.00012207" width="508" height="2031" filterUnits="userSpaceOnUse" color-interpolation-filters="sRGB">
<feFlood flood-opacity="0" result="BackgroundImageFix"/>
<feColorMatrix in="SourceAlpha" type="matrix" values="0 0 0 0 0 0 0 0 0 0 0 0 0 0 0 0 0 0 127 0" result="hardAlpha"/>
<feOffset dy="9"/>
<feGaussianBlur stdDeviation="20"/>
<feComposite in2="hardAlpha" operator="out"/>
<feColorMatrix type="matrix" values="0 0 0 0 0.0862745 0 0 0 0 0.0862745 0 0 0 0 0.0862745 0 0 0 0.5 0"/>
<feBlend mode="normal" in2="BackgroundImageFix" result="effect1_dropShadow_391_1106"/>
<feBlend mode="normal" in="SourceGraphic" in2="effect1_dropShadow_391_1106" result="shape"/>
</filter>
<filter id="filter1_d_391_1106" x="-40" y="1703" width="508" height="584" filterUnits="userSpaceOnUse" color-interpolation-filters="sRGB">
<feFlood flood-opacity="0" result="BackgroundImageFix"/>
<feColorMatrix in="SourceAlpha" type="matrix" values="0 0 0 0 0 0 0 0 0 0 0 0 0 0 0 0 0 0 127 0" result="hardAlpha"/>
<feOffset dy="9"/>
<feGaussianBlur stdDeviation="20"/>
<feComposite in2="hardAlpha" operator="out"/>
<feColorMatrix type="matrix" values="0 0 0 0 0.0862745 0 0 0 0 0.0862745 0 0 0 0 0.0862745 0 0 0 0.5 0"/>
<feBlend mode="normal" in2="BackgroundImageFix" result="effect1_dropShadow_391_1106"/>
<feBlend mode="normal" in="SourceGraphic" in2="effect1_dropShadow_391_1106" result="shape"/>
</filter>
</defs>
</svg>
